<?xml version="1.0" encoding="UTF-8" standalone="no"?>
<svg
   xmlns:dc="http://purl.org/dc/elements/1.1/"
   xmlns:cc="http://creativecommons.org/ns#"
   xmlns:rdf="http://www.w3.org/1999/02/22-rdf-syntax-ns#"
   xmlns:svg="http://www.w3.org/2000/svg"
   xmlns="http://www.w3.org/2000/svg"
   xmlns:sodipodi="http://sodipodi.sourceforge.net/DTD/sodipodi-0.dtd"
   xmlns:inkscape="http://www.inkscape.org/namespaces/inkscape"
   enable-background="new -12 14 190 190"
   viewBox="-12 14 190 71"
   id="svg2"
   version="1.1"
   inkscape:version="0.91 r13725"
   sodipodi:docname="logo2.svg"
   width="190"
   height="71">
  <metadata
     id="metadata34">
    <rdf:RDF>
      <cc:Work
         rdf:about="">
        <dc:format>image/svg+xml</dc:format>
        <dc:type
           rdf:resource="http://purl.org/dc/dcmitype/StillImage" />
        <dc:title></dc:title>
      </cc:Work>
    </rdf:RDF>
  </metadata>
  <defs
     id="defs32" />
  <sodipodi:namedview
     pagecolor="#ffffff"
     bordercolor="#666666"
     borderopacity="1"
     objecttolerance="10"
     gridtolerance="10"
     guidetolerance="10"
     inkscape:pageopacity="0"
     inkscape:pageshadow="2"
     inkscape:window-width="735"
     inkscape:window-height="480"
     id="namedview30"
     showgrid="false"
     fit-margin-top="0"
     fit-margin-left="0"
     fit-margin-right="0"
     fit-margin-bottom="0"
     inkscape:zoom="1.2421053"
     inkscape:cx="95"
     inkscape:cy="35.8"
     inkscape:window-x="918"
     inkscape:window-y="288"
     inkscape:window-maximized="0"
     inkscape:current-layer="svg2" />
  <path
     d="m -12,15 11.2,0 0,69.9 -11.2,0 z"
     id="path4"
     inkscape:connector-curvature="0"
     style="fill:#fcc42a" />
  <g
     id="g6"
     style="fill:#515151"
     transform="translate(0,-59.8)">
    <path
       d="m 7.7,95.4 7.3,0 c 0,3.2 1.3,5.4 4.2,5.4 2.9,0 4.3,-2.1 4.3,-5.2 l 0,-20.8 7.2,0 0,20.3 c 0,7.7 -4.3,11.9 -11.5,11.9 -7.6,0 -11.5,-4.9 -11.5,-11.6"
       id="path8"
       inkscape:connector-curvature="0" />
    <path
       d="m 33.6,90.5 c 0,-8.9 6.2,-16.6 16.8,-16.6 10.5,0 16.8,7.7 16.8,16.6 0,8.9 -6.2,16.6 -16.8,16.6 -10.5,0 -16.8,-7.7 -16.8,-16.6 m 26,0 c 0,-5.5 -3.2,-10.1 -9.2,-10.1 -6,0 -9.2,4.6 -9.2,10.1 0,5.5 3.2,10.1 9.2,10.1 6,0 9.2,-4.6 9.2,-10.1"
       id="path10"
       inkscape:connector-curvature="0" />
    <path
       d="m 77.6,74.8 10.9,20.3 0,-20.3 7,0 0,31.4 -7.5,0 -10.9,-20.3 0,20.3 -6.9,0 0,-31.4 z"
       id="path12"
       inkscape:connector-curvature="0" />
    <path
       d="m 119,74.8 0,5.8 -11.9,0 0,7.2 11.9,0 0,5.7 -11.9,0 0,6.9 11.9,0 0,5.8 -19.2,0 0,-31.4 z"
       id="path14"
       inkscape:connector-curvature="0" />
    <path
       d="m 122,95.9 7.3,0 c 0,3.4 1.9,5.4 5.1,5.4 2.7,0 4.2,-1.3 4.2,-3.5 0,-1.9 -1,-2.9 -3.8,-4 l -5.7,-2.2 c -4.2,-1.6 -6.4,-4.5 -6.4,-8.6 0,-5.5 4.4,-9.2 11.2,-9.2 6.9,0 11.5,3.9 11.5,10 l -7.3,0 c 0,-2.9 -1.5,-4.5 -4.4,-4.5 -2.4,0 -3.8,1.2 -3.8,3.1 0,1.8 1.2,2.8 4.3,4.1 l 5.2,2.1 c 4.4,1.7 6.3,4.6 6.3,8.8 0,5.9 -4.6,9.7 -11.5,9.7 -7.6,0 -12.2,-4.1 -12.2,-11.2"
       id="path16"
       inkscape:connector-curvature="0" />
    <path
       d="m 15.4,113.3 6.5,20.9 6.3,-20.9 5.6,0 6.3,20.9 6.5,-20.9 7.6,0 -11,31.4 -6,0 -6.2,-19.7 -6.2,19.7 -6,0 -11.1,-31.4 z"
       id="path18"
       inkscape:connector-curvature="0" />
    <path
       d="m 57.3,140.9 -1.1,3.8 -7.7,0 10.6,-31.4 7.3,0 10.7,31.4 -7.7,0 -1.1,-3.8 z m 5.6,-19.7 -3.9,14 7.9,0 z"
       id="path20"
       inkscape:connector-curvature="0" />
    <path
       d="m 86.5,113.3 0,25 11.7,0 0,6.4 -19,0 0,-31.4 z"
       id="path22"
       inkscape:connector-curvature="0" />
    <path
       d="m 127.3,144.7 -8.6,0 -10.3,-13.8 0,13.8 -7.3,0 0,-31.4 7.3,0 0,14 10.3,-14 8.6,0 -12.3,15.6 z"
       id="path24"
       inkscape:connector-curvature="0" />
    <path
       d="m 149,113.3 0,5.8 -11.9,0 0,7.2 11.9,0 0,5.7 -11.9,0 0,6.9 11.9,0 0,5.8 -19.2,0 0,-31.4 z"
       id="path26"
       inkscape:connector-curvature="0" />
    <path
       d="m 172.1,134.8 5.5,10 -8.3,0 -4.9,-8.7 -3.8,0 0,8.7 -7.3,0 0,-31.5 13.4,0 c 6.6,0 11.3,4.8 11.3,11.4 0,4.5 -2.3,8.3 -5.9,10.1 m -6.5,-4.7 c 2.9,0 5,-2.3 5,-5.4 0,-3.1 -2.1,-5.4 -5,-5.4 l -5,0 0,10.9 z"
       id="path28"
       inkscape:connector-curvature="0" />
  </g>
</svg>
